<svg width="704" height="626" viewBox="0 0 704 626" fill="none" xmlns="http://www.w3.org/2000/svg">
<path d="M855.995 193.088C896.875 306.147 848.33 462.641 734.633 550.15C621.574 637.02 442.724 656.182 311.141 569.951C179.559 483.72 94.6048 292.733 142.511 170.093C190.417 46.8143 371.184 -7.47947 527.678 0.824284C683.533 9.12804 814.476 79.3906 855.995 193.088Z" fill="#F7A400" fill-opacity="0.24"/>
<path d="M497.206 565.748C525.165 577.31 491.964 593.315 414.204 602.265C336.881 611.15 214.562 613.109 124.57 604.29C34.578 595.471 -23.5235 575.939 9.24052 563.396C42.0045 550.788 165.634 545.235 272.663 546.084C379.256 546.934 468.811 554.119 497.206 565.748Z" fill="#1A1B4B" fill-opacity="0.06"/>
<path d="M352.707 101.524C352.707 101.524 375.662 87.3496 414.892 92.6826C456.665 98.362 480.549 161.948 468.231 343.679H422.184L352.707 101.524Z" fill="#2E2E2C"/>
<path d="M272.31 411.186H429.5C450.891 411.186 468.231 393.847 468.231 372.456V343.68H272.31C259.06 343.68 248.32 354.42 248.32 367.672V387.196C248.32 400.446 259.06 411.186 272.31 411.186Z" fill="#2E2E2C"/>
<path d="M360.981 472.613H355.065C351.051 472.613 347.796 469.36 347.796 465.342V399.901H368.252V465.342C368.252 469.36 364.997 472.613 360.981 472.613Z" fill="#2E2E2C"/>
<path d="M418.733 555.64V568.63H409.322V562.76C409.322 561.106 407.979 559.763 406.325 559.763H366.015C364.624 559.763 363.495 560.892 363.495 562.283V568.63H352.551V562.283C352.551 560.892 351.422 559.763 350.029 559.763H310.028C308.373 559.763 307.032 561.106 307.032 562.76V568.63H297.621V555.64C297.621 552.72 299.989 550.352 302.909 550.352H352.551V382.939H363.495V550.352H413.442C416.365 550.352 418.733 552.72 418.733 555.64Z" fill="#2E2E2C"/>
<path d="M316.468 577.033C316.468 584.773 310.195 591.047 302.455 591.047C294.717 591.047 288.442 584.773 288.442 577.033C288.442 569.293 294.717 563.018 302.455 563.018C310.195 563.018 316.468 569.293 316.468 577.033Z" fill="#2E2E2C"/>
<path d="M302.456 585.059C298.031 585.059 294.43 581.459 294.43 577.033C294.43 572.609 298.031 569.007 302.456 569.007C306.882 569.007 310.481 572.609 310.481 577.033C310.481 581.459 306.882 585.059 302.456 585.059Z" fill="#5A5D5E"/>
<path d="M372.19 577.033C372.19 584.773 365.915 591.047 358.177 591.047C350.438 591.047 344.165 584.773 344.165 577.033C344.165 569.293 350.438 563.018 358.177 563.018C365.915 563.018 372.19 569.293 372.19 577.033Z" fill="#2E2E2C"/>
<path d="M358.178 585.059C353.751 585.059 350.152 581.459 350.152 577.033C350.152 572.609 353.751 569.007 358.178 569.007C362.602 569.007 366.204 572.609 366.204 577.033C366.204 581.459 362.602 585.059 358.178 585.059Z" fill="#5A5D5E"/>
<path d="M428.109 577.033C428.109 584.773 421.836 591.047 414.096 591.047C406.355 591.047 400.082 584.773 400.082 577.033C400.082 569.293 406.355 563.018 414.096 563.018C421.836 563.018 428.109 569.293 428.109 577.033Z" fill="#2E2E2C"/>
<path d="M414.096 585.059C409.671 585.059 406.07 581.459 406.07 577.033C406.07 572.609 409.671 569.007 414.096 569.007C418.52 569.007 422.122 572.609 422.122 577.033C422.122 581.459 418.52 585.059 414.096 585.059Z" fill="#5A5D5E"/>
<path d="M280.466 150.004L279.983 152.458L279.438 155.127L278.275 160.53C277.475 164.143 276.613 167.754 275.728 171.352C274.841 174.951 273.878 178.524 272.895 182.073C271.911 185.621 270.874 189.141 269.77 192.61C268.661 196.077 267.525 199.511 266.317 202.877C265.105 206.242 263.828 209.539 262.472 212.742C261.11 215.939 259.706 219.048 258.209 222.001C256.709 224.951 255.147 227.755 253.52 230.306C251.894 232.852 250.205 235.148 248.563 237.028C246.923 238.915 245.313 240.332 244.039 241.232C243.401 241.682 242.844 241.999 242.383 242.225C241.918 242.448 241.547 242.587 241.194 242.684L241.06 242.721L240.377 242.838L238.99 243.071L236.215 243.542L230.624 244.449L224.997 245.328L219.337 246.188C215.558 246.756 211.764 247.355 207.957 247.888L202.242 248.749C200.335 249.017 198.427 249.311 196.52 249.605L193.658 250.033L190.798 250.478C189.844 250.634 188.899 250.764 187.949 250.928C187.017 251.081 186.029 251.229 185.181 251.389L184.387 251.537C175.441 253.218 169.547 261.829 171.226 270.779C172.612 278.163 178.739 283.465 185.86 284.148L188.996 284.448C190.014 284.543 191.035 284.615 192.049 284.693C194.08 284.854 196.106 284.975 198.131 285.082L201.17 285.241L204.209 285.352C206.235 285.417 208.26 285.49 210.29 285.529C212.317 285.553 214.344 285.578 216.376 285.58C218.407 285.596 220.442 285.596 222.477 285.56C226.546 285.512 230.629 285.38 234.723 285.195C236.77 285.088 238.825 284.985 240.877 284.848L243.969 284.625L245.514 284.514L246.298 284.453L247.625 284.28C251.166 283.778 254.612 282.86 257.814 281.65C261.019 280.44 263.982 278.943 266.675 277.301C269.37 275.657 271.815 273.863 274.031 272.003C276.257 270.143 278.265 268.219 280.123 266.269C281.98 264.318 283.67 262.341 285.254 260.354C286.828 258.364 288.283 256.364 289.655 254.36C292.387 250.352 294.782 246.334 296.94 242.308C299.098 238.285 301.055 234.267 302.827 230.237C304.604 226.212 306.232 222.186 307.748 218.165C309.266 214.141 310.672 210.117 311.96 206.084C313.256 202.053 314.46 198.021 315.595 193.984C316.727 189.947 317.751 185.898 318.729 181.843C319.712 177.79 320.597 173.722 321.422 169.628C321.836 167.581 322.233 165.527 322.601 163.452L323.146 160.316L323.407 158.715L323.677 156.95C325.51 145.006 317.313 133.839 305.368 132.007C293.749 130.224 282.863 137.935 280.594 149.352L280.466 150.004Z" fill="#F7A787"/>
<path d="M327.386 162.9C324.541 172.776 312.688 206.598 302.281 223.535L256.556 201.926C256.556 201.926 272.156 165.783 280.32 143.05C282.98 135.649 288.766 129.718 296.206 127.172C301.207 125.461 307.295 125.086 313.972 128.269C327.123 134.538 328.555 149.055 328.405 156.217C328.359 158.481 328.012 160.725 327.386 162.9Z" fill="#292A73"/>
<path d="M153.813 517.638L141.757 537.332L118.789 527.164L129.213 506.004L153.813 517.638Z" fill="#F7A787"/>
<path d="M46.0461 538.353L132.922 576.809C134.089 575.922 135.177 574.412 136.202 572.49C139.997 565.382 142.847 552.617 144.972 544.713C145.215 543.787 145.452 542.929 145.682 542.159C146.069 540.851 146.427 539.779 146.76 539.024C149.431 532.989 143.631 531.658 143.631 531.658C131.025 536.388 126.791 519.054 119.104 520.721C119.104 520.721 115.804 521.408 106.159 524.56C96.5186 527.714 82.9729 526.617 71.1374 526.373C55.8601 526.056 49.8227 529.823 47.4665 533.214C45.6025 535.901 46.0461 538.353 46.0461 538.353Z" fill="#A9AA42"/>
<path d="M46.0461 538.353L132.922 576.809C134.089 575.922 135.177 574.412 136.202 572.49L47.4665 533.215C45.6025 535.902 46.0461 538.353 46.0461 538.353Z" fill="#7D7F3E"/>
<path d="M124.059 572.887L126.639 574.027C125.367 569.945 124.956 564.365 128.126 558.051C132.346 549.652 140.057 546.144 144.971 544.713C145.214 543.787 145.452 542.929 145.681 542.159C140.52 543.398 131.161 546.974 126.104 557.031C123.077 563.063 123.063 568.556 124.059 572.887Z" fill="#7D7F3E"/>
<path d="M105.364 530.337C106.006 530.621 106.784 530.444 107.233 529.864C107.765 529.183 107.64 528.199 106.957 527.667L102.126 523.92C101.445 523.387 100.461 523.513 99.9294 524.194C99.4001 524.879 99.5227 525.862 100.208 526.391L105.037 530.142L105.364 530.337Z" fill="#7D7F3E"/>
<path d="M112.757 528.206C113.399 528.49 114.177 528.313 114.627 527.731C115.156 527.05 115.033 526.066 114.348 525.537L109.519 521.787C108.836 521.254 107.854 521.381 107.322 522.064C106.793 522.747 106.916 523.731 107.601 524.26L112.43 528.01L112.757 528.206Z" fill="#7D7F3E"/>
<path d="M98.5405 531.09C99.1825 531.376 99.9608 531.197 100.41 530.617C100.941 529.934 100.817 528.949 100.134 528.42L95.3029 524.671C94.6199 524.14 93.6374 524.264 93.1062 524.947C92.5751 525.63 92.6995 526.615 93.3844 527.144L98.2136 530.893L98.5405 531.09Z" fill="#7D7F3E"/>
<path d="M91.7714 531.72C92.4135 532.005 93.1917 531.827 93.6412 531.248C94.1724 530.567 94.0478 529.582 93.3649 529.051L88.5338 525.3C87.8509 524.771 86.8664 524.895 86.3372 525.578C85.806 526.261 85.9305 527.245 86.6154 527.775L91.4445 531.524L91.7714 531.72Z" fill="#7D7F3E"/>
<path d="M84.6131 531.905C85.2552 532.191 86.0334 532.014 86.4829 531.432C87.0141 530.75 86.8895 529.765 86.2066 529.236L81.3755 525.487C80.6926 524.957 79.7081 525.08 79.1789 525.765C78.6477 526.446 78.7722 527.43 79.4551 527.961L84.2862 531.709L84.6131 531.905Z" fill="#7D7F3E"/>
<path d="M77.1353 531.458C77.7793 531.742 78.5557 531.563 79.0051 530.983C79.5363 530.302 79.4118 529.317 78.7288 528.786L73.8977 525.039C73.2148 524.506 72.2322 524.632 71.7011 525.315C71.1719 525.998 71.2944 526.983 71.9793 527.512L76.8085 531.261L77.1353 531.458Z" fill="#7D7F3E"/>
<path d="M207.754 327.628C215.817 319.693 279.426 301.951 321.661 313.743C326.5 323.057 332.654 346.656 317.523 368.483C262.005 377.557 231.022 396.232 231.022 396.232C231.022 396.232 211.338 441.721 199.64 458.417C187.945 475.115 161.118 528.134 161.118 528.134L120.705 510.867C120.705 510.867 185.805 349.232 207.754 327.628Z" fill="#2E2E2C"/>
<path d="M165.443 518.13L164.998 518.04L125.444 501.6C124.851 501.352 124.569 500.671 124.816 500.078C125.063 499.485 125.742 499.204 126.339 499.45L165.891 515.892C166.482 516.139 166.764 516.82 166.517 517.414C166.332 517.859 165.9 518.13 165.443 518.13Z" fill="#5A5D5E"/>
<path d="M158.796 514.807L158.366 514.723C157.77 514.488 157.477 513.81 157.714 513.213C157.796 513.007 166.073 492.36 185.375 463.066C204.55 433.97 224.598 384.788 224.8 384.293C225.042 383.698 225.721 383.412 226.314 383.653C226.912 383.894 227.198 384.572 226.954 385.169C226.754 385.663 206.62 435.058 187.317 464.346C168.147 493.441 159.959 513.869 159.877 514.071C159.697 514.526 159.259 514.807 158.796 514.807Z" fill="#5A5D5E"/>
<path d="M255.818 521.107L252.767 543.998H227.649L228.618 520.428L255.818 521.107Z" fill="#F7A787"/>
<path d="M165.659 583.67H260.668C261.375 582.387 261.758 580.566 261.917 578.395C262.511 570.359 259.948 557.531 258.693 549.445C258.542 548.5 258.409 547.618 258.31 546.821C258.135 545.47 258.026 544.346 258.026 543.519C258.026 536.919 252.185 538.05 252.185 538.05C242.572 547.478 231.684 533.339 225.327 537.976C225.327 537.976 222.59 539.939 215.046 546.725C207.509 553.512 194.677 557.991 183.756 562.561C169.658 568.452 165.659 574.34 164.879 578.395C164.264 581.607 165.659 583.67 165.659 583.67Z" fill="#A9AA42"/>
<path d="M165.659 583.67H260.668C261.375 582.387 261.758 580.566 261.917 578.395H164.879C164.264 581.607 165.659 583.67 165.659 583.67Z" fill="#7D7F3E"/>
<path d="M250.975 583.67H253.797C250.981 580.453 248.347 575.515 248.689 568.458C249.149 559.071 254.781 552.743 258.694 549.445C258.542 548.5 258.41 547.618 258.311 546.821C254.092 550.045 246.981 557.101 246.428 568.345C246.1 575.085 248.312 580.113 250.975 583.67Z" fill="#7D7F3E"/>
<path d="M216.658 552.331C217.362 552.331 218 551.854 218.178 551.142C218.386 550.301 217.872 549.453 217.035 549.245L211.099 547.77C210.261 547.562 209.412 548.075 209.202 548.912C208.994 549.753 209.506 550.601 210.344 550.811L216.281 552.284L216.658 552.331Z" fill="#7D7F3E"/>
<path d="M222.556 547.389C223.259 547.389 223.897 546.912 224.074 546.2C224.282 545.361 223.771 544.513 222.932 544.303L216.996 542.83C216.159 542.62 215.309 543.134 215.101 543.972C214.891 544.813 215.402 545.661 216.243 545.869L222.177 547.344L222.556 547.389Z" fill="#7D7F3E"/>
<path d="M210.723 555.78C211.425 555.78 212.063 555.304 212.241 554.591C212.449 553.753 211.939 552.903 211.098 552.696L205.164 551.222C204.326 551.009 203.475 551.523 203.267 552.364C203.059 553.202 203.571 554.052 204.409 554.259L210.343 555.734L210.723 555.78Z" fill="#7D7F3E"/>
<path d="M204.789 559.098C205.491 559.098 206.129 558.619 206.306 557.907C206.517 557.069 206.003 556.218 205.164 556.012L199.228 554.537C198.39 554.327 197.539 554.841 197.333 555.679C197.123 556.518 197.635 557.368 198.475 557.576L204.409 559.049L204.789 559.098Z" fill="#7D7F3E"/>
<path d="M198.317 562.164C199.02 562.164 199.658 561.687 199.835 560.973C200.043 560.135 199.533 559.286 198.693 559.078L192.757 557.605C191.92 557.397 191.07 557.907 190.862 558.747C190.651 559.586 191.165 560.434 192.004 560.645L197.938 562.115L198.317 562.164Z" fill="#7D7F3E"/>
<path d="M191.3 564.779C192.002 564.779 192.642 564.303 192.817 563.59C193.025 562.752 192.514 561.902 191.675 561.695L185.741 560.221C184.9 560.01 184.052 560.522 183.844 561.363C183.636 562.201 184.145 563.051 184.986 563.258L190.92 564.733L191.3 564.779Z" fill="#7D7F3E"/>
<path d="M282.253 141.217C282.176 150.537 292.307 167.507 298.871 204.109C299.039 205.027 299.208 205.946 299.36 206.88C299.714 208.899 300.05 210.981 300.371 213.121C300.492 213.964 300.617 214.82 300.737 215.694C301.029 217.836 301.319 220.038 301.595 222.319V222.334C301.689 223.083 301.778 223.834 301.87 224.599C302.191 227.459 302.498 230.414 302.757 233.457C303.002 236.137 303.218 238.876 303.399 241.692C303.492 243.114 303.584 244.567 303.675 246.021C303.753 247.536 303.829 249.052 303.905 250.597C304.656 266.985 305.603 305.317 304.259 326.832C333.743 345.454 395.351 346.633 436.803 315.724C439.206 301.093 435.443 251.179 434.142 236.288C433.881 233.337 433.576 230.383 433.208 227.43C431.465 213.246 428.587 199.167 425.114 184.538C424.915 183.744 424.731 182.946 424.532 182.15C421.639 170.109 418.349 157.684 414.967 144.476C408.266 118.327 396.33 103.682 380.523 104.156C373.163 104.386 367.149 103.454 362.604 102.275C362.053 102.121 361.533 101.983 361.014 101.831C355.582 100.253 352.352 98.51 352.352 98.51L318.122 105.014C315.978 109.865 312.781 113.276 309.154 115.939C308.742 116.229 308.343 116.521 307.93 116.811C296.758 124.356 282.392 126.008 282.253 141.217Z" fill="#3E4491"/>
<path d="M422.633 305.7C423.042 305.7 423.378 305.377 423.396 304.965C426.741 223.198 411.255 162.983 411.097 162.386C410.99 161.978 410.574 161.731 410.163 161.839C409.757 161.946 409.512 162.365 409.617 162.773C409.773 163.369 425.202 223.379 421.867 304.902C421.849 305.325 422.178 305.683 422.6 305.698L422.633 305.7Z" fill="#1A1B4B"/>
<path d="M333.273 161.114C338.892 159.314 344.426 155.86 349.731 150.843C358.853 142.214 364.227 131.771 364.279 131.668C364.478 131.281 364.335 130.781 363.964 130.551C363.592 130.322 363.131 130.448 362.935 130.835C362.882 130.938 357.609 141.175 348.663 149.625C336.775 160.855 324.383 163.773 311.832 158.298C311.437 158.125 311.001 158.322 310.857 158.738C310.715 159.152 310.921 159.629 311.316 159.8C318.552 162.958 325.854 163.427 333.022 161.194L333.273 161.114Z" fill="#1A1B4B"/>
<path d="M346.714 293.425C349.739 292.849 352.776 291.989 355.819 290.847C363.314 288.026 370.844 283.485 378.198 277.348C390.697 266.915 398.482 255.3 398.56 255.183C398.799 254.823 398.717 254.309 398.375 254.039C398.03 253.768 397.56 253.84 397.318 254.204C397.242 254.317 389.561 265.773 377.22 276.066C365.886 285.516 348.184 295.896 328.208 291.678C327.798 291.59 327.405 291.88 327.339 292.324C327.27 292.767 327.551 293.197 327.961 293.285C334.108 294.581 340.384 294.627 346.714 293.425Z" fill="#1A1B4B"/>
<path d="M315.97 101.279L318.104 109.976C319.328 110.55 320.534 111.011 321.723 111.379C339.106 116.745 352.706 101.524 352.706 101.524L345.308 71.3718L319.468 97.7123L315.97 101.279Z" fill="#F7A787"/>
<path d="M315.97 101.279L318.104 109.976C319.328 110.55 320.534 111.011 321.723 111.379C333.381 103.135 339.468 87.3497 339.468 87.3497L319.468 97.7123L315.97 101.279Z" fill="#2E2E2C"/>
<path d="M331.973 154.327C329.737 154.327 327.683 153.514 325.852 151.901C315.402 142.692 315.445 109.242 315.452 107.822C315.456 107.153 315.999 106.612 316.668 106.612H316.674C317.344 106.616 317.888 107.163 317.884 107.834C317.883 108.17 317.834 141.597 327.461 150.078C329.105 151.526 330.893 152.098 332.925 151.831C345.783 150.136 351.64 112.696 352.813 98.4109C352.868 97.7416 353.453 97.2435 354.124 97.298C354.794 97.3525 355.29 97.9401 355.235 98.6094C355.226 98.7417 354.121 111.937 350.98 125.23C346.667 143.5 340.697 153.259 333.242 154.244C332.814 154.298 332.389 154.327 331.973 154.327Z" fill="#FEFEFE"/>
<path d="M293.881 30.2385C293.881 30.2385 278.006 38.6224 287.616 50.8626C287.616 50.8626 295.776 35.8654 293.881 30.2385Z" fill="#2E2E2C"/>
<path d="M295.607 65.4045C295.607 65.4045 289.216 60.7797 287.846 67.2996C286.474 73.8195 291.529 85.1044 298.6 81.3279L295.607 65.4045Z" fill="#F38669"/>
<path d="M295.339 87.1589C295.339 87.1589 299.722 105.145 318.486 100.52C337.135 95.9261 346.268 78.2264 346.762 77.3878L346.78 77.3664L346.056 73.5373L342.307 53.6643L340.301 43.0429C340.301 43.0429 338.054 23.5843 319.2 24.5396C305.427 25.2381 293.624 30.4272 289.075 38.7858C287.402 41.8697 286.713 45.3835 287.276 49.2632L291.315 68.2354L292.301 72.8855L295.339 87.1589Z" fill="#F7A787"/>
<path d="M290.585 54.4834C290.53 52.4852 291.244 48.5316 297.27 46.7746C298.006 46.5587 298.795 46.8836 299.169 47.551C299.636 48.3895 299.292 49.4558 298.412 49.843C296.863 50.524 294.735 51.9754 294.04 54.9309C293.824 55.8551 292.834 56.3746 291.929 56.0808L291.721 56.0127C291.054 55.7947 290.602 55.1819 290.585 54.4834Z" fill="#2E2E2C"/>
<path d="M284.404 55.7034C284.713 55.503 285.04 55.3182 285.373 55.1548C285.795 54.9427 286.225 54.7578 286.68 54.6002C287.003 54.4855 287.336 54.3901 287.674 54.3045C288.149 54.1897 288.618 54.106 289.085 54.0535C289.357 54.0263 289.618 54.0049 289.883 53.9912C291.525 53.9329 293.124 54.2422 294.582 54.8629C296.938 55.861 298.928 57.6705 300.119 60.0326C300.483 60.7563 300.775 61.5385 300.977 62.3576C301.878 66.0135 300.825 69.6986 298.49 72.3097C298.323 72.5004 298.146 72.6833 297.965 72.8584C296.73 74.0686 295.2 74.9947 293.451 75.52L293.255 75.5745L292.93 75.6582C291.735 75.95 290.539 76.0356 289.373 75.9345L288.898 75.8878C288.35 75.8177 287.811 75.7029 287.281 75.5551C286.439 75.306 285.632 74.9694 284.873 74.5375C282.81 73.3642 281.127 71.5353 280.174 69.255C280.038 68.9437 279.919 68.6265 279.82 68.2977C279.742 68.072 279.68 67.8424 279.623 67.607C278.468 62.9121 280.534 58.1667 284.404 55.7034ZM278.187 67.9611C279.114 71.726 281.672 74.6678 284.921 76.2322C285.779 76.6427 286.688 76.9559 287.628 77.1622C288.128 77.275 288.64 77.3528 289.155 77.4015C289.34 77.4209 289.529 77.4326 289.715 77.4365C290.887 77.4988 292.085 77.3859 293.278 77.0941L293.628 76.9968C293.858 76.9404 294.087 76.8664 294.313 76.7906C295.802 76.2866 297.14 75.522 298.288 74.5589C301.827 71.5995 303.588 66.7782 302.413 62.0035C302.238 61.2914 302.002 60.6026 301.711 59.9528L301.681 59.873C301.456 59.3769 301.205 58.8963 300.917 58.4449C299.821 56.6529 298.288 55.1917 296.506 54.1683C294.883 53.2402 293.052 52.6701 291.146 52.5398C290.457 52.4911 289.76 52.5009 289.058 52.5729C288.484 52.6293 287.902 52.7266 287.322 52.8706C287.005 52.9503 286.7 53.0379 286.394 53.141C285.955 53.283 285.525 53.4484 285.112 53.6352C284.76 53.8006 284.421 53.9718 284.093 54.1644C279.398 56.865 276.831 62.4452 278.187 67.9611Z" fill="#FEFEFE"/>
<path d="M308.341 68.4846C303.942 69.5605 301.704 66.8599 301.613 66.7452C301.467 66.5681 301.412 66.3326 301.459 66.1089C302.959 59.1784 304.451 52.0651 304.467 51.995C304.554 51.5826 304.959 51.3199 305.372 51.4055C305.786 51.4911 306.051 51.8939 305.965 52.3064C305.949 52.3764 304.512 59.2251 303.041 66.0311C303.619 66.5506 305.243 67.6732 307.979 67.0059C308.387 66.9047 308.802 67.1557 308.903 67.5643C309.002 67.9728 308.749 68.3853 308.341 68.4846Z" fill="#2E2E2C"/>
<path d="M321.807 46.8565C320.928 45.0606 318.469 41.8834 312.309 43.0994C311.558 43.2492 311.007 43.9029 310.986 44.6656C310.958 45.6229 311.756 46.4109 312.717 46.3487C314.406 46.2397 316.965 46.5471 318.949 48.8469C319.568 49.5668 320.687 49.5707 321.354 48.8936L321.508 48.736C322 48.2379 322.117 47.4849 321.807 46.8565Z" fill="#2E2E2C"/>
<path d="M280.349 67.8696L290.768 65.6904L291.122 67.1244L291.101 67.1302L280.651 69.3152C280.252 69.3989 279.861 69.142 279.777 68.7432C279.693 68.3443 279.929 67.9455 280.349 67.8696Z" fill="#FEFEFE"/>
<path d="M308.229 60.5773C307.291 56.7599 308.48 52.9094 311.032 50.2808C312.422 48.8469 314.21 47.7787 316.284 47.2709C317.245 47.0316 318.21 46.9323 319.154 46.9557C323.415 47.0491 327.308 49.6388 329.008 53.6137L329.049 53.713C329.265 54.2286 329.446 54.7675 329.582 55.324C330.246 58.0265 329.845 60.7427 328.649 63.0327C327.261 65.6847 324.808 67.7607 321.71 68.5759L321.531 68.6246C315.642 70.076 309.676 66.461 308.229 60.5773ZM306.789 60.8925L306.795 60.9275C307.454 63.6164 308.951 65.889 310.935 67.535C313.875 69.9729 317.895 71.0411 321.883 70.0585C324.253 69.4768 326.298 68.2491 327.876 66.6011C328.604 65.852 329.236 65.0056 329.752 64.0951C331.269 61.4237 331.808 58.1861 331.018 54.9699C330.909 54.5341 330.783 54.1079 330.629 53.6974C330.464 53.2246 330.267 52.7732 330.044 52.3354C327.489 47.2612 321.673 44.4263 315.928 45.8369L315.803 45.87C313.287 46.5121 311.149 47.8896 309.548 49.7166C307.795 51.7051 306.701 54.2325 306.478 56.9233C306.431 57.4234 306.421 57.9254 306.445 58.4332C306.474 59.2484 306.589 60.0734 306.789 60.8925Z" fill="#FEFEFE"/>
<path d="M345.887 53.9893L346.132 53.8783C346.467 53.6468 346.551 53.1857 346.319 52.851C341.078 45.2921 329.425 52.6895 329.31 52.7635C328.968 52.9853 328.868 53.4425 329.09 53.7849C329.31 54.1254 329.767 54.2247 330.11 54.0048C330.217 53.9367 340.677 47.3059 345.105 53.6935C345.284 53.9523 345.599 54.0593 345.887 53.9893Z" fill="#FEFEFE"/>
<path d="M301.15 60.3243C301.335 60.2776 301.502 60.1608 301.607 59.9838C303.1 57.4797 306.532 58.4486 306.565 58.4603C306.958 58.5732 307.368 58.3494 307.481 57.9583C307.598 57.5673 307.372 57.1567 306.981 57.0419C305.409 56.5828 301.998 56.4466 300.339 59.2289C300.13 59.5771 300.243 60.0305 300.595 60.2406C300.769 60.3437 300.967 60.3671 301.15 60.3243Z" fill="#FEFEFE"/>
<path d="M346.914 43.1909L346.968 43.6481C347.083 44.6268 347.116 45.5121 347.083 46.3098C347.002 48.5609 346.443 50.1466 346.037 51.3296C340.995 53.7831 339.283 57.2697 338.937 60.2271L334.401 61.986C334.401 61.986 331.915 54.5185 332.1 48.3469C332.207 44.7085 329.582 43.6481 327.475 41.7025V41.6966C326.835 41.1071 326.243 40.4319 325.796 39.5778C325.224 38.4941 324.877 38.0426 324.959 36.1651C324.959 36.1651 317.011 32.6804 309.625 37.0873C302.238 41.504 295.136 44.1365 290.295 40.1945C289.813 39.8054 289.367 39.3813 289.075 38.7859C293.624 30.4273 305.425 25.2343 319.202 24.5397C338.052 23.5825 344.276 31.2834 344.276 31.2834C346.753 35.3771 346.356 39.284 346.914 43.1909Z" fill="#2E2E2C"/>
<path d="M347.083 46.3097C347.001 48.5608 346.443 50.1466 346.036 51.3295C340.995 53.783 339.283 57.2696 338.937 60.2271L334.401 61.986C334.401 61.986 331.915 54.5185 332.099 48.3468C332.206 44.7084 329.582 43.648 327.475 41.7024C331.541 41.6693 340.458 44.5061 347.083 46.3097Z" fill="#F38669"/>
<path d="M346.986 30.1783C346.986 30.1783 314.918 25.7986 293.963 30.1744C293.414 30.2892 292.873 30.4099 292.342 30.5402C290.171 31.0539 288.155 31.6823 286.352 32.4295C286.352 32.4295 287.719 20.8703 301.172 14.2881C302.703 13.539 304.392 12.8541 306.254 12.2529C308.705 11.4708 311.456 10.8384 314.546 10.4201L314.85 10.3773C315.659 10.2703 316.449 10.1866 317.218 10.1322C319.595 9.94148 321.8 9.96287 323.841 10.1594C324.378 10.208 324.899 10.2703 325.411 10.3442C329.242 10.8948 332.466 12.0642 335.168 13.5779C336.054 14.0741 336.882 14.6033 337.659 15.1656C346.037 21.1913 346.986 30.1783 346.986 30.1783Z" fill="#5578BA"/>
<path d="M306.254 12.2528C301.958 15.0973 295.814 20.6969 293.963 30.1743C293.858 30.6996 293.769 31.2347 293.693 31.7833L292.179 31.581C292.228 31.2289 292.282 30.8806 292.342 30.5401C293.671 22.8197 297.679 17.5469 301.172 14.2879C302.703 13.5389 304.392 12.854 306.254 12.2528Z" fill="#435CA7"/>
<path d="M317.217 10.1321C310.738 15.0702 309.263 24.2459 309.246 24.3529L307.736 24.1272C307.8 23.7031 309.073 15.7959 314.546 10.42L314.849 10.3772C315.659 10.2702 316.449 10.1865 317.217 10.1321Z" fill="#435CA7"/>
<path d="M325.41 10.3442C325.8 14.148 325.854 22.1875 320.529 27.6101L319.437 26.5458C324.438 21.4578 324.214 13.5487 323.84 10.1594C324.377 10.208 324.899 10.2703 325.41 10.3442Z" fill="#435CA7"/>
<path d="M339.363 29.2463L337.898 28.8143C339.482 23.5221 337.254 17.5645 335.168 13.5778C336.053 14.074 336.882 14.6032 337.658 15.1655C339.437 19.1988 340.816 24.4015 339.363 29.2463Z" fill="#435CA7"/>
<path d="M285.643 38.5484C285.643 38.5484 314.303 25.3957 346.601 40.0816C346.601 40.0816 350.119 35.4198 346.899 29.8221C346.899 29.8221 315.33 12.9785 285.931 30.7171C285.931 30.7171 283.238 34.3029 285.643 38.5484Z" fill="#435CA7"/>
<path d="M316.367 64.5679C316.688 65.8792 319.655 66.2781 322.994 65.4629C326.333 64.6476 328.776 62.9238 328.455 61.6163C328.134 60.3068 325.169 59.906 321.83 60.7213C318.492 61.5384 316.044 63.2604 316.367 64.5679Z" fill="#F38669"/>
<path d="M291.314 67.4359H299.558V72.8857H291.314V67.4359Z" fill="#F48C6F"/>
<path d="M314.61 57.6317C315.054 59.4314 316.229 60.6883 317.239 60.4412C318.247 60.1941 318.71 58.5384 318.268 56.7386C317.827 54.9408 316.651 53.6839 315.64 53.931C314.632 54.1762 314.171 55.8339 314.61 57.6317Z" fill="#2E2E2C"/>
<path d="M296.755 61.9938C297.197 63.7916 298.372 65.0485 299.383 64.8014C300.393 64.5563 300.854 62.8986 300.411 61.1008C299.971 59.303 298.794 58.0461 297.786 58.2912C296.774 58.5383 296.315 60.196 296.755 61.9938Z" fill="#2E2E2C"/>
<path d="M318.301 69.858C318.247 69.9533 314.227 76.9072 307.631 78.5182C305.458 79.0493 303.006 79.0007 300.323 77.9345C299.93 77.7788 299.742 77.3352 299.897 76.9441C300.055 76.553 300.499 76.3643 300.89 76.518C310.488 80.3315 316.904 69.2237 316.969 69.1128C317.177 68.7451 317.642 68.6147 318.009 68.821C318.377 69.0272 318.508 69.4922 318.301 69.858Z" fill="#2E2E2C"/>
<path d="M339.098 71.5274C339.232 71.7064 342.956 76.6153 346.766 77.3897L346.778 77.3664L346.056 73.5373C346.056 73.5373 342.968 73.7571 339.098 71.5274Z" fill="#2E2E2C"/>
<path d="M339.34 58.2328C339.34 58.2328 344.188 46.8156 351.337 53.1118C357.226 58.3009 352.988 76.6077 342.996 73.1308L339.34 58.2328Z" fill="#F7A787"/>
<path d="M349.095 69.7628C349.095 70.7376 348.305 71.5275 347.328 71.5275C346.353 71.5275 345.561 70.7376 345.561 69.7628C345.561 68.788 346.353 67.9961 347.328 67.9961C348.305 67.9961 349.095 68.788 349.095 69.7628Z" fill="#FEFEFE"/>
<path d="M343.27 69.9807L343.186 69.9982C342.768 70.0527 342.385 69.7589 342.328 69.3425C341.215 60.91 347.455 56.3707 347.721 56.182C348.066 55.9369 348.543 56.0166 348.788 56.3591C349.033 56.7015 348.953 57.1762 348.609 57.4214C348.375 57.5887 342.853 61.6376 343.846 69.1421C343.896 69.5312 343.643 69.8912 343.27 69.9807Z" fill="#2E2E2C"/>
<path d="M349.097 63.8053L348.589 63.7547C347.816 63.3909 345.544 62.5892 344.343 63.2274C343.97 63.4259 343.507 63.2858 343.308 62.9142C343.112 62.5445 343.252 62.0814 343.624 61.8849C345.713 60.77 348.889 62.2098 349.245 62.3771C349.624 62.5581 349.787 63.0114 349.606 63.3928C349.505 63.6088 349.313 63.7528 349.097 63.8053Z" fill="#2E2E2C"/>
<path d="M437.105 314.382C437.105 314.382 456.712 391.751 355.037 391.751C300.728 391.751 274.918 386.509 274.918 386.509C274.918 386.509 273.611 434.462 271.085 454.691C268.562 474.92 259.608 525.327 259.608 525.327L216.834 528.638C216.834 528.638 210.001 353.087 236.215 336.918C262.429 320.754 300.121 320.273 364.835 314.063C364.835 314.063 422.935 304.227 437.105 314.382Z" fill="#2E2E2C"/>
<path d="M253.752 511.304L253.48 511.273C252.855 511.124 252.47 510.495 252.62 509.871C258.529 485.176 260.877 449.8 262.764 421.372C264.625 393.352 265.73 378.61 268.646 376.032C271.855 373.197 281.377 374.209 297.154 375.888C316.704 377.966 346.249 381.106 378.102 377.454C393.924 375.641 406.053 369.444 414.151 359.035C428.681 340.368 425.346 314.162 425.313 313.899C425.226 313.263 425.671 312.677 426.307 312.592C426.947 312.504 427.531 312.952 427.617 313.588C427.767 314.697 431.127 340.998 415.999 360.451C407.501 371.378 394.84 377.877 378.368 379.766C346.257 383.447 316.56 380.289 296.909 378.201C283.342 376.758 272.627 375.62 270.187 377.775C269.637 378.262 268.541 380.669 267.407 391.304C266.57 399.156 265.881 409.525 265.086 421.528C263.191 450.041 260.834 485.528 254.883 510.411C254.754 510.946 254.277 511.304 253.752 511.304Z" fill="#5A5D5E"/>
<path d="M217.299 514.795C216.688 514.795 216.175 514.32 216.14 513.702C216.101 513.059 216.589 512.509 217.229 512.472L260.972 509.834C261.621 509.793 262.162 510.285 262.203 510.925C262.24 511.567 261.752 512.118 261.11 512.157L217.371 514.793L217.299 514.795Z" fill="#5A5D5E"/>
<path d="M366.129 136.857L365.946 139.883L365.725 143.134C365.559 145.317 365.402 147.514 365.207 149.71C364.818 154.105 364.39 158.507 363.886 162.886C363.635 165.077 363.361 167.262 363.076 169.443C362.798 171.622 362.501 173.796 362.183 175.961C361.555 180.29 360.818 184.58 360.035 188.822C359.251 193.062 358.372 197.249 357.383 201.342C356.887 203.387 356.364 205.413 355.815 207.405C355.274 209.401 354.706 211.372 354.101 213.297C352.899 217.153 351.554 220.85 350.081 224.272C348.599 227.681 346.997 230.825 345.334 233.424C343.68 236.02 341.964 238.049 340.604 239.234C339.921 239.847 339.341 240.238 338.865 240.52L338.688 240.62L338.602 240.664L338.561 240.69L338.534 240.705L338.468 240.734C338.108 240.89 337.777 241.05 337.388 241.205L336.824 241.441L336.228 241.674C335.835 241.834 335.411 241.983 334.995 242.139C333.312 242.76 331.471 243.338 329.568 243.908C327.66 244.472 325.677 245.005 323.648 245.511C319.591 246.534 315.367 247.472 311.067 248.309C306.765 249.134 302.393 249.945 297.978 250.677C295.774 251.044 293.554 251.389 291.328 251.735C289.106 252.091 286.873 252.43 284.635 252.757C280.158 253.395 275.662 254.049 271.155 254.638L257.758 256.393L257.357 256.446C248.36 257.623 242.025 265.872 243.202 274.867C244.251 282.885 250.922 288.786 258.727 289.144L260.624 289.232L262.451 289.306C263.663 289.349 264.869 289.394 266.073 289.417C268.482 289.469 270.887 289.524 273.294 289.536C278.101 289.553 282.913 289.534 287.736 289.384C290.149 289.316 292.564 289.234 294.984 289.137C297.402 289.028 299.827 288.886 302.257 288.734C307.117 288.421 312.005 288.051 316.933 287.495C321.863 286.95 326.84 286.308 331.924 285.442C337.012 284.545 342.18 283.498 347.69 281.887C348.385 281.683 349.072 281.482 349.782 281.253L350.838 280.916L351.918 280.55C352.628 280.317 353.377 280.035 354.107 279.77L354.243 279.72L354.418 279.652L354.78 279.504L355.5 279.208C355.985 279.011 356.444 278.793 356.915 278.583C360.652 276.859 364.038 274.733 366.999 272.429C372.955 267.799 377.323 262.6 380.897 257.485C384.463 252.348 387.244 247.215 389.61 242.124C391.968 237.036 393.929 231.99 395.643 226.982C396.503 224.476 397.293 221.982 398.04 219.492C398.776 216.999 399.451 214.513 400.093 212.034C401.369 207.074 402.476 202.136 403.465 197.214C404.451 192.293 405.27 187.378 406.013 182.477C406.381 180.026 406.724 177.576 407.047 175.128C407.358 172.681 407.642 170.231 407.905 167.785C408.434 162.89 408.879 157.999 409.204 153.088C409.368 150.632 409.527 148.173 409.634 145.696L409.782 141.961L409.839 140.058L409.879 137.99C410.111 125.909 400.505 115.928 388.423 115.696C376.657 115.47 366.88 124.576 366.166 136.213L366.129 136.857Z" fill="#F7A787"/>
<path d="M264.418 253.57C264.418 253.57 270.021 271.707 266.527 286.516C264.412 287.973 260.997 288.839 258.425 288.179C258.425 288.179 261.939 272.009 256.244 253.632C259.003 252.457 261.735 252.443 264.418 253.57Z" fill="#2E2E2C"/>
<path d="M253.695 276.486C254.048 282.214 258.98 286.57 264.71 286.218C270.44 285.864 274.796 280.932 274.444 275.202C274.09 269.472 269.158 265.115 263.43 265.47C257.698 265.822 253.339 270.754 253.695 276.486Z" fill="#2E2E2C"/>
<path d="M264.531 283.309C268.646 283.056 271.79 279.498 271.535 275.381C271.282 271.264 267.726 268.122 263.607 268.376C259.49 268.631 256.347 272.188 256.602 276.305C256.857 280.422 260.414 283.564 264.531 283.309Z" fill="#FEFEFE"/>
<path d="M358.353 253.006C358.534 253.006 358.715 252.941 358.861 252.813C359.176 252.529 359.203 252.046 358.923 251.731C352.16 244.166 341.486 239.612 341.032 239.423C340.643 239.258 340.196 239.442 340.032 239.83C339.869 240.219 340.05 240.666 340.439 240.832C340.546 240.878 351.253 245.449 357.783 252.751C357.932 252.92 358.141 253.006 358.353 253.006Z" fill="#F38669"/>
<path d="M356.8 243.283C357.15 243.283 357.467 243.042 357.547 242.688C357.636 242.275 357.38 241.865 356.967 241.771C356.605 241.692 348.048 239.791 342.305 240.102C341.882 240.125 341.557 240.487 341.581 240.908C341.604 241.33 341.97 241.649 342.388 241.631C347.924 241.32 356.545 243.246 356.632 243.264L356.8 243.283Z" fill="#F38669"/>
<path d="M414.886 140.056C414.662 150.331 411.858 186.061 406.13 205.096L356.401 195.906C356.401 195.906 362.232 156.975 364.308 132.909C364.987 125.074 369.062 117.86 375.605 113.494C380.002 110.56 385.788 108.641 393.057 110.009C407.376 112.704 412.475 126.372 414.162 133.335C414.697 135.536 414.935 137.791 414.886 140.056Z" fill="#292A73"/>
<path d="M406.13 205.862C406.455 205.862 406.756 205.654 406.859 205.329C416.111 176.376 415.335 147.309 415.327 147.019C415.313 146.605 414.973 146.276 414.56 146.276L414.539 146.278C414.117 146.292 413.784 146.644 413.798 147.066C413.807 147.354 414.572 176.167 405.402 204.864C405.274 205.265 405.496 205.697 405.898 205.825L406.13 205.862Z" fill="#1A1B4B"/>
<path d="M356.401 196.671C356.765 196.671 357.088 196.41 357.154 196.038C360.067 179.527 364.075 143.149 364.114 142.784C364.161 142.363 363.859 141.986 363.439 141.939C363.023 141.894 362.641 142.196 362.594 142.616C362.556 142.982 358.553 179.31 355.648 195.772C355.575 196.188 355.851 196.585 356.267 196.659L356.401 196.671Z" fill="#1A1B4B"/>
<path d="M104.743 330.441H454.974C462.216 330.441 468.09 324.569 468.09 317.325V311.986H91.6272V317.325C91.6272 324.569 97.4992 330.441 104.743 330.441Z" fill="#435CA7"/>
<path d="M144.958 453.972H411.783V441.321H144.958V453.972Z" fill="#435CA7"/>
<path d="M154.4 591.048L118.031 330.441H130.803L167.173 591.048H154.4Z" fill="#5578BA"/>
<path d="M124.499 591.048L160.87 330.441H148.096L111.726 591.048H124.499Z" fill="#5578BA"/>
<path d="M432.199 591.048L395.828 330.441H408.602L444.972 591.048H432.199Z" fill="#5578BA"/>
<path d="M402.297 591.048L438.668 330.441H425.892L389.524 591.048H402.297Z" fill="#5578BA"/>
<path d="M76.5854 297.482V304.628C76.5854 308.741 79.1206 312.072 82.2512 312.072H476.336C479.467 312.072 482 308.741 482 304.628V297.482C482 293.37 479.467 290.039 476.336 290.039H82.2512C79.1206 290.039 76.5854 293.37 76.5854 297.482Z" fill="#5578BA"/>
<path d="M76.5854 301.056V304.323H482V301.056H76.5854Z" fill="#435CA7"/>
<path d="M83.6303 146.325L110.072 258.162C110.778 261.142 113.438 263.246 116.502 263.246H279.393C283.654 263.246 286.801 259.267 285.82 255.121L259.378 143.286C258.674 140.305 256.014 138.202 252.952 138.202H90.0608C85.7978 138.202 82.6497 142.181 83.6303 146.325Z" fill="#FEFEFE"/>
<path d="M162.778 205.095C163.554 212.133 169.889 217.842 176.927 217.842C183.968 217.842 189.044 212.133 188.27 205.095C187.494 198.058 181.159 192.349 174.119 192.349C167.08 192.349 162.004 198.058 162.778 205.095Z" fill="#D4DEE1"/>
<path d="M246.496 138.202L274.649 263.246H279.393C283.654 263.246 286.8 259.267 285.82 255.121L259.378 143.286C258.674 140.305 256.014 138.202 252.951 138.202H246.496Z" fill="#D4DEE1"/>
<path d="M199.314 263.244L204.254 291.032H187.936L182.994 263.244H199.314Z" fill="#D4DEE1"/>
<path d="M228.682 286.251L225.339 281.552C224.147 279.877 222.217 278.881 220.158 278.881H175.41C173.042 278.881 170.873 280.196 169.775 282.294L167.524 286.603C166.469 288.619 167.931 291.032 170.203 291.032H226.217C228.674 291.032 230.108 288.253 228.682 286.251Z" fill="#D4DEE1"/>
<path d="M394.511 290.121H260.093L258.634 285.051C257.715 281.86 260.108 278.681 263.43 278.681H387.462C389.686 278.681 391.643 280.152 392.256 282.292L394.511 290.121Z" fill="#FEFEFE"/>
<path d="M418.316 257.302H478.917V248.595H418.316V257.302Z" fill="#FAB164"/>
<path d="M417.495 282.687C423.608 290.039 441.232 290.164 446.865 290.006H446.869C447.974 289.975 448.616 289.934 448.616 289.934C448.616 289.934 472.423 291.491 479.741 282.687C483.895 277.688 481.566 270.19 478.776 264.641C478.112 263.32 477.421 262.111 476.785 261.068C475.382 258.775 474.246 257.304 474.246 257.304H422.989C422.989 257.304 420.592 260.407 418.46 264.641C415.67 270.19 413.341 277.688 417.495 282.687Z" fill="#FAB164"/>
<path d="M468.217 275.963C470.783 284.08 461.203 290.234 448.616 289.934C448.616 289.934 472.423 291.491 479.741 282.687C483.895 277.688 481.566 270.19 478.776 264.641L478.575 264.248L478.375 263.859C477.836 262.841 477.293 261.903 476.785 261.068C475.383 258.775 474.246 257.304 474.246 257.304H422.99C422.99 257.304 420.593 260.407 418.46 264.641H441.394C447.137 264.641 452.852 265.676 458.177 267.832C462.668 269.653 467.065 272.309 468.217 275.963Z" fill="#F79C36"/>
<path d="M427.258 240.787C427.963 241.837 428.657 242.816 429.311 243.705C431.404 246.546 433.078 248.439 433.208 248.593L433.218 248.597H464.018L464.028 248.593C464.158 248.439 465.829 246.546 467.923 243.705C468.578 242.816 469.273 241.837 469.979 240.787C473.756 235.152 477.746 227.541 476.651 221.748C476.318 219.966 475.793 218.731 475.145 217.902C474.806 217.48 474.445 217.159 474.05 216.929C470.726 214.987 465.629 219.521 464.018 219.377C461.843 219.18 465.382 208.323 470.427 200.621C475.145 193.418 478.215 183.79 472.439 180.321C472.23 180.197 472.018 180.082 471.785 179.975C471.577 179.872 471.359 179.782 471.125 179.699C463.625 176.934 461.058 187.003 457.897 185.619C454.789 184.256 464.306 152.099 449.342 152.037C449.112 152.033 448.863 152.041 448.616 152.055C448.367 152.041 448.124 152.033 447.888 152.037C432.932 152.099 442.446 184.256 439.341 185.619C436.179 187.003 433.609 176.934 426.112 179.699C425.879 179.782 425.659 179.872 425.451 179.975C425.219 180.082 425.005 180.197 424.797 180.321C419.018 183.79 422.091 193.418 426.803 200.621C431.85 208.323 435.387 219.18 433.218 219.377C431.603 219.521 426.509 214.987 423.186 216.929C422.793 217.159 422.429 217.48 422.091 217.902C421.441 218.731 420.917 219.966 420.583 221.748C419.489 227.541 423.48 235.152 427.258 240.787Z" fill="#A9AA42"/>
<path d="M447.888 152.035V248.597H449.344V152.035C449.11 152.031 448.863 152.041 448.616 152.057C448.367 152.041 448.126 152.031 447.888 152.035Z" fill="#7D7F3E"/>
<path d="M448.067 207.36L448.616 207.837L449.168 208.314L449.343 208.109L473.051 180.734L472.438 180.319C472.232 180.199 472.018 180.082 471.785 179.975L449.343 205.887L448.616 206.726L448.067 207.36Z" fill="#7D7F3E"/>
<path d="M448.067 246.937L448.616 247.412L449.168 247.887L449.343 247.684L475.143 217.9C474.808 217.48 474.444 217.157 474.049 216.929L449.343 245.46L448.616 246.301L448.067 246.937Z" fill="#7D7F3E"/>
<path d="M424.186 180.734L447.888 208.103L448.067 208.314L448.616 207.837L449.168 207.36L448.616 206.726L447.888 205.883L425.451 179.975C425.217 180.082 425.003 180.199 424.795 180.319L424.186 180.734Z" fill="#7D7F3E"/>
<path d="M422.093 217.9L447.889 247.678L448.068 247.887L448.616 247.412L449.169 246.937L448.616 246.301L447.889 245.456L423.184 216.929C422.793 217.157 422.428 217.48 422.093 217.9Z" fill="#7D7F3E"/>
</svg>
