<?xml version="1.0" encoding="utf-8"?>
<!-- Generator: Adobe Illustrator 24.1.1, SVG Export Plug-In . SVG Version: 6.00 Build 0)  -->
<svg version="1.1" id="Layer_1" xmlns="http://www.w3.org/2000/svg" xmlns:xlink="http://www.w3.org/1999/xlink" x="0px" y="0px"
	 viewBox="0 0 1000 369.9" style="enable-background:new 0 0 1000 369.9;" xml:space="preserve">
<style type="text/css">
	.st0{fill:#3A9EFD;}
	.st1{fill:none;}
	.st2{fill:#1A1B4B;}
	.st3{fill:#F7A400;}
</style>
<g>
	<path d="M124,166.2v166.2c0,18.2-15.1,33.2-33.2,33.2s-33.2-15.1-33.2-33.2V166.2H32.6c-18.2,0-33.2-15.1-33.2-33.2
		s15.1-33.2,33.2-33.2h24.9C57.5,44.7,102.2,0,157.2,0h16.6c18.2,0,33.2,15.1,33.2,33.2S192,66.5,173.9,66.5h-16.6
		c-18.2,0-33.2,15.1-33.2,33.2h49.9c18.2,0,33.2,15.1,33.2,33.2s-15.1,33.2-33.2,33.2H124z"/>
	<path d="M298.5,332.4c0,18.2-15.1,33.2-33.2,33.2S232,350.6,232,332.4V133c0-18.2,15.1-33.2,33.2-33.2s33.2,15.1,33.2,33.2V332.4z"
		/>
	<path d="M701.5,332.4c0,18.2-15.1,33.2-33.2,33.2c-18.2,0-33.2-15.1-33.2-33.2V133c0-18.2,15.1-33.2,33.2-33.2
		c18.2,0,33.2,15.1,33.2,33.2V332.4z"/>
	<path class="st0" d="M462.7,197.5c20.5,0,37.4,16.8,37.4,37.4s-16.8,37.4-37.4,37.4c-20.5,0-37.4-16.8-37.4-37.4
		S442.1,197.5,462.7,197.5z"/>
	<path class="st0" d="M668.3,8.3c20.5,0,37.4,16.8,37.4,37.4s-16.8,37.4-37.4,37.4c-20.5,0-37.4-16.8-37.4-37.4S647.7,8.3,668.3,8.3
		z"/>
	<path class="st0" d="M265.3,8.3c20.5,0,37.4,16.8,37.4,37.4s-16.8,37.4-37.4,37.4s-37.4-16.8-37.4-37.4S244.7,8.3,265.3,8.3z"/>
	<circle class="st1" cx="460.6" cy="232.7" r="66.5"/>
	<path class="st2" d="M526.2,347.9c-2.1-4.7-3.3-9.9-3.3-15.4c0-20.5,16.8-37.4,37.4-37.4c5.6,0,10.9,1.3,15.7,3.5
		c10.9-19.7,17.6-42,17.6-65.9V33.2c0-18.2-15.1-33.2-33.2-33.2c-18.2,0-33.2,15.1-33.2,33.2v84.7c-19.7-11.4-42.6-18.2-66.5-18.2
		c-73.3,0-133,59.7-133,133c0,73.3,59.7,133,133,133c23.9,0,46.2-6.2,65.5-17.7 M527.1,232.7c0,36.9-29.6,66.5-66.5,66.5
		s-66.5-29.6-66.5-66.5c0-36.9,29.6-66.5,66.5-66.5S527.1,195.9,527.1,232.7z"/>
	<path class="st3" d="M560.3,295.2c20.5,0,37.4,16.8,37.4,37.4c0,20.5-16.8,37.4-37.4,37.4c-20.5,0-37.4-16.8-37.4-37.4
		C522.9,312,539.7,295.2,560.3,295.2z"/>
	<circle class="st1" cx="863.5" cy="232.7" r="66.5"/>
	<path d="M981,299.7"/>
	<path d="M929.2,347.9c-2.1-4.7-3.3-9.9-3.3-15.3c0-20.5,16.8-37.4,37.4-37.4c5.5,0,10.8,1.2,15.6,3.4
		c10.9-19.7,17.6-42.1,17.6-65.9c0-73.2-59.7-133-133-133s-133,59.7-133,133s59.7,133,133,133c23.9,0,46.2-6.2,65.4-17.7
		 M863.5,299.1c-36.9,0-66.5-29.6-66.5-66.5s29.6-66.5,66.5-66.5s66.5,29.6,66.5,66.5S900.4,299.1,863.5,299.1z"/>
	<path class="st3" d="M978.8,298.6C978.8,298.6,978.8,298.6,978.8,298.6"/>
	<path class="st3" d="M963.3,295.2c20.5,0,37.4,16.8,37.4,37.4c0,20.5-16.8,37.4-37.4,37.4s-37.4-16.8-37.4-37.4
		C925.9,312,942.7,295.2,963.3,295.2z"/>
</g>
</svg>
